<svg width="103" height="102" viewBox="0 0 103 102" fill="none" xmlns="http://www.w3.org/2000/svg">
	<path
		d="M34.1221 10.9115C39.1266 7.84257 45.5605 7.74744 50.7564 10.3489C55.3363 12.7469 58.896 17.2413 60.2575 22.4786C61.7548 29.202 59.7913 36.9506 54.5769 41.3088C51.5606 44.4007 47.2276 45.0617 43.7683 47.3892C40.1346 49.5265 36.6722 53.0317 36.2632 57.6605C36.1721 60.6442 37.6879 63.3276 38.1356 66.2211C38.1418 66.1571 38.1541 66.0291 38.1603 65.9652C39.5295 72.2703 35.7661 78.9167 30.2013 81.2409C25.2231 83.5045 19.0377 81.564 15.7776 77.0353C12.0327 72.1932 12.0728 64.3659 16.3425 59.888C19.3511 56.1909 24.3478 55.5413 27.4891 52.0459C29.6533 49.6971 29.9898 46.1131 29.1871 43.0606C28.3968 37.7691 25.4994 33.0517 25.2478 27.6487C24.9483 20.8498 28.7904 14.4249 34.1221 10.9115Z"
		fill="white" />
	<path
		d="M49.4613 52.3904C53.6723 51.3176 58.3125 54.526 59.2325 58.9875C59.6539 61.6332 59.7805 64.6382 61.6467 66.6787C62.8971 67.7645 64.5194 68.2746 66.1186 68.3616L65.9813 68.3895C68.3399 68.5797 70.6955 68.1828 73.048 68.3107C77.1232 68.5141 80.8789 71.2845 82.6896 75.1309C84.8924 79.622 83.8998 85.6548 80.4282 89.1092C77.131 92.7129 71.6634 93.5838 67.3875 91.5975C64.0579 90.0474 61.7177 86.657 60.9876 82.914C60.3053 78.9478 60.4273 74.3813 57.6302 71.2681C55.2947 68.9685 51.9265 70.1741 49.1263 69.4113C44.8365 68.4075 42.1722 63.2489 43.0397 58.812C44.0508 55.7447 46.5052 53.2548 49.4613 52.3904Z"
		fill="white" />
	<path
		d="M17.7055 5.02442C39.0401 5.0212 60.3701 5.04699 81.7047 5.00186C84.3906 5.01798 87.2387 4.83905 89.7162 6.12055C93.228 8.20803 95.5434 12.325 95.3381 16.5821C95.386 36.6767 95.2856 56.7729 95.406 76.8691C95.3227 80.4525 95.6252 84.0761 95.0556 87.6289C94.1109 92.4212 89.7795 96.5107 84.9448 96.1207C64.0532 96.1593 43.1616 96.3721 22.2685 96.2851C19.3557 96.2012 16.3332 96.4559 13.5362 95.4436C9.57673 93.5302 6.81516 89.0329 7.00966 84.4437C7.05906 61.8248 6.98805 39.2042 7.0606 16.587C6.92013 10.6227 11.7116 4.56663 17.7055 5.02442ZM34.1221 11.5786C28.7904 15.0314 24.9483 21.3454 25.2477 28.027C25.4993 33.3367 28.3968 37.9727 29.1871 43.1729C29.9898 46.1727 29.6533 49.6948 27.4891 52.0031C24.3478 55.4382 19.351 56.0765 16.3425 59.7099C12.0728 64.1105 12.0327 71.8027 15.7775 76.5612C19.0377 81.0118 25.223 82.9188 30.2013 80.6943C35.7661 78.4101 39.5295 71.8785 38.1603 65.6822C38.1541 65.745 38.1417 65.8708 38.1356 65.9336C37.6879 63.0901 36.1721 60.453 36.2631 57.5209C36.6722 52.9719 40.1346 49.5272 43.7683 47.4268C47.2276 45.1395 51.5606 44.4898 54.5768 41.4513C59.7912 37.1684 61.7547 29.5535 60.2574 22.9461C58.8959 17.7991 55.3363 13.3824 50.7563 11.0257C45.5605 8.46917 39.1266 8.56266 34.1221 11.5786ZM49.4612 52.3416C46.5052 53.1911 44.0508 55.6381 43.0397 58.6524C42.1722 63.0128 44.8365 68.0824 49.1263 69.0689C51.9264 69.8184 55.2946 68.6336 57.6302 70.8936C60.4272 73.9531 60.3053 78.4408 60.9876 82.3385C61.7177 86.0169 64.0579 89.3488 67.3875 90.8721C71.6634 92.8242 77.1309 91.9683 80.4281 88.4268C83.8998 85.032 84.8923 79.1033 82.6896 74.6897C80.8789 70.9097 77.1232 68.1871 73.048 67.9873C70.6955 67.8615 68.3399 68.2516 65.9812 68.0646L66.1186 68.0372C64.5194 67.9518 62.897 67.4505 61.6467 66.3834C59.7804 64.3781 59.6539 61.425 59.2324 58.8249C58.3124 54.4404 53.6723 51.2874 49.4612 52.3416Z"
		fill="#F31418" />
</svg>