<?xml version="1.0" encoding="utf-8"?>
<!-- Generator: Adobe Illustrator 24.3.0, SVG Export Plug-In . SVG Version: 6.00 Build 0)  -->
<svg version="1.1" id="Layer_1" xmlns="http://www.w3.org/2000/svg" xmlns:xlink="http://www.w3.org/1999/xlink" x="0px"
    y="0px" viewBox="0 0 1830 620" style="enable-background:new 0 0 1830 620;" xml:space="preserve">
    <style type="text/css">
        .st0 {
            fill: #161213;
        }

        .st1 {
            fill: #FFFFFF;
        }

        .st2 {
            fill: #F31418;
        }
    </style>
    <g id="text">
        <path class="st0" d="M693.53,132.51c32.76-36.5,83.55-51.4,131.46-49.88c32.92-0.11,66.17,1.02,98.42,8.07
		c2.2,23.89-0.44,48.02,1.48,71.94c-37.84-13.59-82.14-21.34-119.87-3.52c-44.22,22.06-49.21,89.8-14.42,122.27
		c12.51,11.49,30.45,11.27,46.36,11.25c3.64-0.18,9.6-0.47,9.48-5.46c0.41-22.9-0.05-45.83,0.11-68.72
		c29.67,0.38,59.37-0.09,89.03,0.37c-1.2,40.72-0.19,81.47-0.48,122.2c0.55,4.33-3.75,6.07-7.24,6.72
		c-20.39,3.85-40.78,8-61.53,9.23l0.58,0.31c-43.34,3.48-88.97,2.81-129.03-16.13c-23.96-11.62-44.23-30.58-57.99-53.32
		C654.7,239.56,655.89,174.17,693.53,132.51z" />
        <path class="st0" d="M974.16,86.27c34.42,0.26,68.89-0.29,103.31,0.27c-0.52,54.12-0.21,108.29-0.09,162.43
		c-0.32,16.54,7.3,36.65,24.97,40.9c18.07,5.1,38.91-8.5,38.82-27.91c2.78-58.48,0.74-117.12,1.34-175.65
		c33.39,0.09,66.81-0.25,100.2,0.13c0.27,43.8,0.08,87.72,0.42,131.56c-0.33,30.1,1.08,62.1-13.75,89.42
		c-13.19,24.11-38.58,39.26-64.73,45.64c-33.8,7.77-69.27,7.6-103.3,1.3c-33.56-6.77-66.55-27.53-79.36-60.45
		c-6.83-17.44-7.87-36.4-7.83-54.93C973.87,188.08,974.09,137.17,974.16,86.27z" />
        <path class="st0" d="M1281.47,86.41c34.23,0.2,68.59-0.65,102.74,0.47c-0.42,60.69,0.41,121.4-0.11,182.1
		c-0.83,5.12,4.67,7.32,8.89,6.84c39.21-0.83,78.44-0.48,117.65-0.25c0.98,26.48-0.42,53.09-0.02,79.61
		c-76.42-0.81-152.95,1.07-229.33-0.98C1282.18,264.95,1281.73,175.67,1281.47,86.41z" />
        <path class="st0" d="M1534.74,86.15c76.71,0.54,153.53,0.02,230.18,0.68c-0.2,21.57-0.56,43.14-0.1,64.71
		c-42.02-0.24-84.31-0.42-126.15,0.71c-2.1,13.45-1.57,27.65-0.33,41.14c40.61,1.6,81.51,0.06,122.23,0.91
		c0.37,21.24,0.25,42.73-0.22,64.03c-40.51,1.17-81.09,0.59-121.63,0.96c-2.94,31.18-0.82,63.95-0.92,95.74
		c-34.46-0.45-69.18,0.7-103.52-0.64C1535.31,264.99,1534.25,175.55,1534.74,86.15z" />
        <path class="st0" d="M665.42,388.95c13.75,0.21,27.57-0.27,41.28,0.78c-1.07,51.3-0.13,102.63,0,153.94
		c-13.92-0.64-28.3,1.59-41.92-1.5C665.9,491.11,665.16,440.01,665.42,388.95z" />
        <path class="st0" d="M1272.37,391.49c18.69-3.3,37.83-2.72,56.63-0.75c17.92-0.76,7.41,22.77,9.44,33.66
		c-15.64-1.97-31.19-7.56-47.15-4.23c-8.7,0.49-19.7,9-14.93,18.44c16.08,12.25,37.62,12.76,54.66,23.27
		c16.68,9.41,20.42,30.55,16.18,47.89l-0.08-0.55c-10.08,37.76-56.77,41.24-88.92,35.98l1-0.15c-7.58-0.8-15.34-1.25-22.55-3.9
		c-1.65-3.81-1.09-8-0.84-12l0.26,0.69c0.36-6.9,0.64-13.82,1.42-20.68c9.15-0.29,17.38,4.54,26.32,5.72l-0.7,0.08
		c2.53,0.38,5.08,0.7,7.66,0.88l-0.6,0.23c8.27,0.46,16.64,0.92,24.77-1.1l-0.71,0.12c6.77-2.26,13.59-7.68,13.94-15.36
		c-16.54-23.35-54.8-17.09-69.67-43.27C1223.44,430.33,1243.43,395.54,1272.37,391.49z" />
        <path class="st0" d="M737.44,391.07c15.87,0.37,31.75,0.19,47.61-0.29c2.54-0.46,4.67,1.11,6.09,3.06
		c17.94,32.22,29.75,68.17,50.12,98.89c0.24-0.67,0.7-2.03,0.94-2.71c0.44-15.2-0.47-30.45,0.12-45.64l-0.24-0.58
		c-0.61-17.39-0.38-34.83-0.76-52.22c12.18-0.48,24.44-0.45,36.64-0.17c0.01,51.02,0.17,102.17,0.11,153.23
		c-12.86,1.25-25.79-1.58-38.59,0.51c-5.67,0.75-12.56-0.85-15.16-6.49c-10.7-22.17-22.39-43.85-32.92-66.1
		c-4.81-10.5-8.98-21.69-16.69-30.46c-4.59,33.65,1.52,68.12-0.05,102.09c-12.04,1.65-24.35,0.4-36.46-0.07
		c-0.35-0.25-1.05-0.73-1.4-0.97C736.97,492.47,736.16,441.73,737.44,391.07z" />
        <path class="st0"
            d="M1170.77,392.38c11.78-2.47,24.23-0.22,36.26-1.52c5.65-0.41,4.5,6.44,4.5,10.16
		c-1.25,36.48,4.19,73.78-4.05,109.63c-11.85,34.36-53.9,41.33-85.32,34.66l0.66-0.07c-21.87-4.83-41.72-22.46-44.39-45.43
		c-3.68-36.08-0.89-72.53-1.57-108.75c13.65,0.58,27.32-0.21,40.97,0.35c-0.4,29.55-0.75,59.15-0.23,88.71
		c0.28,13.24,4.18,28.83,17.33,34.85c15.71,7.44,34.92-6.36,34.96-23.21C1171.83,458.73,1171.36,425.49,1170.77,392.38z" />
        <path class="st0" d="M1624.02,390.66c13.3,1.04,26.65,1.11,39.96,0.01c8.34-1.12,9.75,9.23,12.54,14.86
		c8.34,14.75,11.78,32.13,22.6,45.3c13.52-17.66,18.71-40.45,30.57-59.16c13.19-1.69,26.82,0.44,40.2-0.61l-0.7-0.29
		c1.97-0.02,3.95-0.03,5.96-0.01c-14.97,33.21-38.26,62.46-53.95,95.45c-3.88,19.13-0.56,38.95-2.58,58.27
		c-12.95,0.58-26.11,0.96-39.02-0.19c-2.49-19.87,2.96-40.59-2.78-60.11C1660.84,452.16,1639.16,423,1624.02,390.66z" />
        <g>
            <path class="st0" d="M907.74,391.35c30.39,0.48,60.94-1.11,91.16,2.8c20.19,2.76,39.23,15.36,47.81,34.11
			c11,23.68,11.18,52.05,0.77,75.98c-12.32,25.6-41.32,38.22-68.51,39.44c-23.45,0.79-47.06,2.07-70.46,0.51
			C906.75,493.38,908.94,442.27,907.74,391.35z M949.77,512.36c10,5.62,22.97-0.05,33.9-1.13c30.47-7.79,36.96-49.42,20.86-72.78
			c-12.31-17.07-35.73-17.32-54.73-17.06C947.88,451.53,947.59,482.23,949.77,512.36z" />
        </g>
        <path class="st0" d="M1360.71,391.55c39.12-0.12,78.32-0.6,117.43,0.12c-0.03,9.63-0.12,19.27-0.75,28.88
		c-12.05,2.95-24.65-0.1-36.83,1.35c-1.76,40.7-0.9,81.72-0.89,122.53c-13.31,0.78-26.81,0.78-40.12-0.05
		c-1.41-40.65,1.15-81.5-0.35-122.11c-12.05-2.5-24.61,0.93-36.76-1.08C1361.24,411.38,1361.41,401.42,1360.71,391.55z" />
        <g>
            <path class="st0" d="M1494.37,391.21c27.43,0.3,54.87-0.26,82.29,0.68l-0.6,0.13c3.26,0.18,6.52,0.48,9.79,0.75l-0.74,0.22
			c26.64,2.02,41.33,37.89,25.8,59.03c-3.86,7.19-12.12,9.9-17.18,15.92l-0.22-1.06c-0.16,8.39,7.56,13.93,10.09,21.55
			c6.05,18.68,15.95,36.85,19.04,56.06c-13.53,0.2-27.83,2.09-41.03-1.11c-9.22-20.73-9.51-51.64-34.74-60.09
			c-4.56-1.67-10.41-1.79-11.06,4.29c-1.55,18.84,0.22,37.86-0.33,56.77c-13.63,1.47-27.57,0.59-41.24-0.02
			C1493.33,493.33,1493.9,442.24,1494.37,391.21z M1536.3,420.2c-1.48,11.37-2.25,24.11,1.12,35.16c5.15,0.91,10.35-0.09,15.52-0.36
			l-0.87-0.2c12.45,0.8,27.65-7.22,23.44-21.91C1569.78,417.85,1549.34,420.59,1536.3,420.2z" />
        </g>
    </g>
    <g id="logo_inside">
        <path class="st1" d="M211.75,66.97c32.42-18.71,74.1-19.29,107.76-3.43c29.67,14.62,52.73,42.02,61.55,73.95
		c9.7,40.99-3.02,88.23-36.8,114.8c-19.54,18.85-47.61,22.88-70.02,37.07c-23.54,13.03-45.97,34.4-48.62,62.62
		c-0.59,18.19,9.23,34.55,12.13,52.19c0.04-0.39,0.12-1.17,0.16-1.56c8.87,38.44-15.51,78.96-51.56,93.13
		c-32.25,13.8-72.32,1.97-93.44-25.64c-24.26-29.52-24-77.24,3.66-104.54c19.49-22.54,51.86-26.5,72.21-47.81
		c14.02-14.32,16.2-36.17,11-54.78c-5.12-32.26-23.89-61.02-25.52-93.96C152.32,127.56,177.21,88.39,211.75,66.97z" />
        <path class="st1" d="M311.12,319.85c27.28-6.54,57.34,13.02,63.3,40.22c2.73,16.13,3.55,34.45,15.64,46.89
		c8.1,6.62,18.61,9.73,28.97,10.26l-0.89,0.17c15.28,1.16,30.54-1.26,45.78-0.48c26.4,1.24,50.73,18.13,62.46,41.58
		c14.27,27.38,7.84,64.16-14.65,85.22c-21.36,21.97-56.78,27.28-84.48,15.17c-21.57-9.45-36.73-30.12-41.46-52.94
		c-4.42-24.18-3.63-52.02-21.75-71c-15.13-14.02-36.95-6.67-55.09-11.32c-27.79-6.12-45.05-37.57-39.43-64.62
		C276.07,340.3,291.97,325.12,311.12,319.85z" />
    </g>
    <g id="logo_outside">
        <g>
            <path class="st2"
                d="M105.4,26.31c138.21-0.02,276.39,0.14,414.6-0.14c17.4,0.1,35.85-1.01,51.9,6.94
			c22.75,12.95,37.75,38.49,36.42,64.9c0.31,124.66-0.34,249.33,0.44,374c-0.54,22.23,1.42,44.71-2.27,66.75
			c-6.12,29.73-34.18,55.1-65.5,52.68c-135.34,0.24-270.68,1.56-406.03,1.02c-18.87-0.52-38.45,1.06-56.57-5.22
			C52.74,575.37,34.85,547.47,36.11,519c0.32-140.32-0.14-280.65,0.33-420.96C35.53,61.04,66.57,23.47,105.4,26.31z M211.75,66.97
			c-34.54,21.42-59.43,60.59-57.49,102.04c1.63,32.94,20.4,61.7,25.52,93.96c5.2,18.61,3.02,40.46-11,54.78
			c-20.35,21.31-52.72,25.27-72.21,47.81c-27.66,27.3-27.92,75.02-3.66,104.54c21.12,27.61,61.19,39.44,93.44,25.64
			c36.05-14.17,60.43-54.69,51.56-93.13c-0.04,0.39-0.12,1.17-0.16,1.56c-2.9-17.64-12.72-34-12.13-52.19
			c2.65-28.22,25.08-49.59,48.62-62.62c22.41-14.19,50.48-18.22,70.02-37.07c33.78-26.57,46.5-73.81,36.8-114.8
			c-8.82-31.93-31.88-59.33-61.55-73.95C285.85,47.68,244.17,48.26,211.75,66.97z M311.12,319.85
			c-19.15,5.27-35.05,20.45-41.6,39.15c-5.62,27.05,11.64,58.5,39.43,64.62c18.14,4.65,39.96-2.7,55.09,11.32
			c18.12,18.98,17.33,46.82,21.75,71c4.73,22.82,19.89,43.49,41.46,52.94c27.7,12.11,63.12,6.8,84.48-15.17
			c22.49-21.06,28.92-57.84,14.65-85.22c-11.73-23.45-36.06-40.34-62.46-41.58c-15.24-0.78-30.5,1.64-45.78,0.48l0.89-0.17
			c-10.36-0.53-20.87-3.64-28.97-10.26c-12.09-12.44-12.91-30.76-15.64-46.89C368.46,332.87,338.4,313.31,311.12,319.85z" />
        </g>
    </g>
</svg>