<svg width="184" height="274" viewBox="0 0 184 274" fill="none" xmlns="http://www.w3.org/2000/svg">
<path d="M59.1499 16.3665C68.7724 10.4656 81.1434 10.2827 91.1339 15.2847C99.9402 19.8957 106.785 28.5372 109.402 38.6075C112.281 51.5352 108.506 66.434 98.4799 74.8138C92.6803 80.7588 84.3489 82.0298 77.6974 86.5052C70.7106 90.6146 64.0532 97.3544 63.2667 106.255C63.0915 111.991 66.0062 117.151 66.8669 122.715C66.8788 122.592 66.9026 122.346 66.9144 122.223C69.5471 134.346 62.3109 147.125 51.611 151.594C42.039 155.947 30.1459 152.216 23.8773 143.508C16.6768 134.198 16.754 119.148 24.9637 110.538C30.7484 103.429 40.3561 102.18 46.3961 95.459C50.5574 90.9426 51.2044 84.0515 49.661 78.1821C48.1414 68.0078 42.5703 58.9373 42.0865 48.5485C41.5107 35.4757 48.8982 23.1221 59.1499 16.3665Z" fill="white"/>
<path d="M88.6437 96.1213C96.7406 94.0586 105.663 100.228 107.432 108.806C108.242 113.893 108.485 119.671 112.074 123.595C114.478 125.682 117.597 126.663 120.672 126.83L120.408 126.884C124.943 127.25 129.473 126.487 133.996 126.733C141.832 127.124 149.053 132.451 152.534 139.846C156.77 148.482 154.861 160.082 148.186 166.724C141.846 173.653 131.334 175.327 123.112 171.508C116.71 168.528 112.21 162.009 110.806 154.811C109.494 147.185 109.729 138.405 104.351 132.419C99.8601 127.997 93.3837 130.315 87.9996 128.849C79.7514 126.919 74.6285 117 76.2965 108.469C78.2406 102.571 82.9598 97.7833 88.6437 96.1213Z" fill="white"/>
<path d="M27.5844 5.04696C68.6061 5.04076 109.619 5.09036 150.641 5.00357C155.805 5.03457 161.281 4.69053 166.045 7.15457C172.797 11.1683 177.25 19.0843 176.855 27.2699C176.947 65.9073 176.754 104.548 176.985 143.188C176.825 150.079 177.407 157.046 176.312 163.877C174.495 173.092 166.167 180.955 156.871 180.205C116.701 180.279 76.5309 180.688 36.358 180.521C30.7572 180.36 24.9457 180.85 19.5676 178.903C11.9545 175.224 6.6446 166.577 7.01858 157.753C7.11356 114.262 6.97702 70.7672 7.11652 27.2792C6.84643 15.8113 16.0593 4.16673 27.5844 5.04696ZM59.1498 17.6492C48.8981 24.2882 41.5106 36.4287 42.0864 49.2758C42.5702 59.4853 48.1413 68.3993 49.6609 78.398C51.2043 84.1661 50.5573 90.9383 46.396 95.3767C40.356 101.982 30.7483 103.209 24.9636 110.195C16.7539 118.656 16.6767 133.447 23.8772 142.596C30.1458 151.154 42.0389 154.821 51.6109 150.543C62.3108 146.152 69.547 133.593 66.9143 121.678C66.9025 121.799 66.8787 122.041 66.8668 122.162C66.0061 116.695 63.0914 111.624 63.2666 105.986C64.0531 97.2395 70.7105 90.616 77.6973 86.5774C84.3488 82.1793 92.6802 80.9303 98.4798 75.0878C108.506 66.8527 112.281 52.211 109.402 39.5064C106.784 29.6099 99.9401 21.1175 91.1338 16.5861C81.1433 11.6704 68.7723 11.8502 59.1498 17.6492ZM88.6436 96.0276C82.9597 97.661 78.2405 102.366 76.2964 108.162C74.6284 116.546 79.7512 126.293 87.9995 128.19C93.3836 129.632 99.86 127.354 104.351 131.699C109.729 137.582 109.494 146.21 110.806 153.705C112.21 160.778 116.71 167.184 123.112 170.113C131.333 173.867 141.846 172.221 148.186 165.411C154.861 158.884 156.77 147.484 152.534 138.998C149.053 131.73 141.832 126.495 133.996 126.111C129.472 125.869 124.943 126.619 120.408 126.259L120.672 126.207C117.597 126.042 114.478 125.079 112.074 123.027C108.485 119.171 108.242 113.493 107.432 108.493C105.663 100.063 96.7405 94.0006 88.6436 96.0276Z" fill="#F31418"/>
<path d="M11.6937 199.831C16.7005 193.792 24.4628 191.327 31.785 191.578C36.8162 191.56 41.8979 191.747 46.8267 192.914C47.163 196.866 46.7595 200.859 47.0529 204.817C41.2698 202.568 34.4993 201.286 28.733 204.234C21.9747 207.884 21.2121 219.092 26.5291 224.465C28.441 226.366 31.1829 226.33 33.6144 226.326C34.1707 226.297 35.0816 226.249 35.0633 225.423C35.1259 221.634 35.0556 217.84 35.0801 214.053C39.6146 214.115 44.1537 214.038 48.6867 214.114C48.5033 220.851 48.6577 227.594 48.6134 234.333C48.6974 235.049 48.0402 235.337 47.5068 235.445C44.3906 236.082 41.2744 236.768 38.1031 236.972L38.1917 237.023C31.568 237.599 24.5943 237.488 18.4718 234.354C14.8099 232.432 11.712 229.295 9.60907 225.532C5.75923 217.544 5.94111 206.724 11.6937 199.831Z" fill="white"/>
<path d="M54.583 192.181C59.8435 192.224 65.1116 192.133 70.3721 192.225C70.2926 201.18 70.34 210.143 70.3583 219.101C70.3094 221.837 71.474 225.165 74.1745 225.868C76.9362 226.712 80.1212 224.462 80.1075 221.25C80.5324 211.574 80.2206 201.872 80.3123 192.187C85.4154 192.202 90.523 192.146 95.6261 192.209C95.6673 199.456 95.6383 206.723 95.6903 213.977C95.6398 218.957 95.8553 224.251 93.5888 228.772C91.573 232.761 87.6925 235.268 83.696 236.323C78.5303 237.609 73.1093 237.581 67.9084 236.538C62.7794 235.418 57.7374 231.983 55.7797 226.536C54.7358 223.651 54.5769 220.514 54.583 217.448C54.5387 209.026 54.5723 200.602 54.583 192.181Z" fill="white"/>
<path d="M101.55 192.204C106.781 192.237 112.033 192.096 117.252 192.282C117.188 202.323 117.314 212.368 117.235 222.412C117.108 223.259 117.949 223.623 118.594 223.543C124.586 223.406 130.582 223.464 136.574 223.502C136.724 227.883 136.51 232.286 136.571 236.674C124.892 236.54 113.196 236.851 101.522 236.512C101.658 221.745 101.59 206.973 101.55 192.204Z" fill="white"/>
<path d="M140.258 192.161C151.981 192.25 163.722 192.164 175.437 192.273C175.406 195.842 175.351 199.411 175.421 202.98C168.999 202.94 162.536 202.911 156.141 203.098C155.821 205.323 155.902 207.673 156.091 209.905C162.298 210.169 168.548 209.914 174.772 210.055C174.828 213.569 174.81 217.125 174.738 220.649C168.547 220.843 162.345 220.747 156.149 220.808C155.7 225.967 156.024 231.389 156.009 236.649C150.742 236.575 145.436 236.765 140.187 236.543C140.345 221.751 140.183 206.953 140.258 192.161Z" fill="white"/>
<path d="M7.3976 242.262C9.49904 242.296 11.6112 242.217 13.7065 242.391C13.543 250.879 13.6866 259.372 13.7065 267.861C11.5791 267.756 9.38137 268.125 7.29979 267.613C7.47097 259.165 7.35786 250.71 7.3976 242.262Z" fill="white"/>
<path d="M100.159 242.682C103.015 242.136 105.941 242.232 108.814 242.558C111.553 242.432 109.946 246.325 110.257 248.127C107.866 247.801 105.49 246.876 103.051 247.427C101.721 247.508 100.04 248.916 100.769 250.478C103.226 252.505 106.518 252.59 109.123 254.329C111.672 255.886 112.243 259.383 111.595 262.252L111.583 262.161C110.043 268.409 102.907 268.985 97.9934 268.115L98.1463 268.09C96.9878 267.957 95.8018 267.883 94.6999 267.444C94.4477 266.814 94.5333 266.121 94.5715 265.459L94.6112 265.573C94.6663 264.431 94.7091 263.287 94.8283 262.151C96.2267 262.103 97.4845 262.903 98.8508 263.098L98.7438 263.111C99.1305 263.174 99.5202 263.227 99.9145 263.257L99.8228 263.295C101.087 263.371 102.366 263.447 103.608 263.113L103.5 263.133C104.535 262.759 105.577 261.862 105.63 260.591C103.103 256.728 97.2552 257.763 94.9826 253.432C92.681 249.108 95.7361 243.352 100.159 242.682Z" fill="white"/>
<path d="M18.4046 242.612C20.83 242.674 23.257 242.644 25.6809 242.564C26.0691 242.488 26.3946 242.748 26.6117 243.071C29.3535 248.402 31.1584 254.35 34.2716 259.433C34.3083 259.322 34.3786 259.097 34.4153 258.985C34.4825 256.47 34.3434 253.946 34.4336 251.433L34.3969 251.337C34.3037 248.46 34.3389 245.574 34.2808 242.697C36.1423 242.617 38.016 242.622 39.8805 242.669C39.8821 251.11 39.9065 259.574 39.8974 268.022C37.9319 268.229 35.9558 267.761 33.9996 268.106C33.133 268.23 32.08 267.966 31.6826 267.032C30.0473 263.364 28.2607 259.777 26.6514 256.096C25.9163 254.358 25.279 252.507 24.1006 251.056C23.3991 256.623 24.3329 262.327 24.093 267.947C22.2529 268.22 20.3715 268.014 18.5207 267.936C18.4672 267.895 18.3603 267.815 18.3068 267.775C18.3327 259.39 18.209 250.995 18.4046 242.612Z" fill="white"/>
<path d="M84.6313 242.829C86.4317 242.421 88.3344 242.793 90.173 242.578C91.0365 242.51 90.8608 243.643 90.8608 244.259C90.6697 250.295 91.5011 256.466 90.2418 262.398C88.4307 268.083 82.0041 269.236 77.2021 268.133L77.303 268.121C73.9606 267.322 70.9269 264.405 70.5188 260.604C69.9564 254.635 70.3828 248.604 70.2788 242.611C72.365 242.707 74.4542 242.576 76.5404 242.669C76.4792 247.558 76.4258 252.456 76.5052 257.347C76.548 259.537 77.1441 262.117 79.1538 263.113C81.5548 264.344 84.4907 262.06 84.4968 259.272C84.7933 253.807 84.7215 248.308 84.6313 242.829Z" fill="white"/>
<path d="M153.902 242.545C155.935 242.717 157.975 242.728 160.01 242.546C161.284 242.361 161.5 244.073 161.926 245.005C163.201 247.445 163.727 250.321 165.38 252.5C167.446 249.578 168.24 245.807 170.052 242.712C172.068 242.432 174.151 242.785 176.196 242.611L176.089 242.563C176.39 242.559 176.693 242.558 177 242.561C174.712 248.056 171.153 252.896 168.755 258.354C168.162 261.519 168.669 264.799 168.36 267.995C166.381 268.091 164.37 268.154 162.397 267.964C162.016 264.676 162.849 261.248 161.972 258.018C159.53 252.72 156.216 247.896 153.902 242.545Z" fill="white"/>
<path d="M44.4319 242.659C49.0765 242.738 53.7455 242.475 58.3641 243.122C61.4497 243.579 64.3597 245.664 65.671 248.766C67.3521 252.684 67.3796 257.378 65.7886 261.337C63.9058 265.573 59.4736 267.661 55.3181 267.863C51.7342 267.994 48.1258 268.206 44.5496 267.947C44.2806 259.541 44.6153 251.084 44.4319 242.659ZM50.8554 262.681C52.3837 263.611 54.366 262.673 56.0364 262.494C60.6932 261.205 61.6851 254.317 59.2245 250.452C57.3431 247.628 53.7638 247.586 50.86 247.629C50.5666 252.616 50.5222 257.696 50.8554 262.681Z" fill="white"/>
<path d="M113.66 242.692C119.639 242.672 125.63 242.593 131.607 242.712C131.603 244.305 131.589 245.9 131.493 247.49C129.651 247.978 127.725 247.474 125.864 247.714C125.595 254.448 125.726 261.235 125.728 267.987C123.694 268.116 121.63 268.116 119.596 267.979C119.381 261.253 119.772 254.494 119.543 247.775C117.701 247.361 115.782 247.929 113.925 247.596C113.741 245.973 113.767 244.325 113.66 242.692Z" fill="white"/>
<path d="M134.088 242.636C138.28 242.685 142.474 242.593 146.664 242.748L146.573 242.77C147.071 242.799 147.569 242.849 148.069 242.894L147.956 242.93C152.027 243.264 154.272 249.199 151.899 252.697C151.309 253.887 150.046 254.335 149.273 255.331L149.24 255.156C149.215 256.544 150.395 257.461 150.782 258.721C151.706 261.812 153.219 264.819 153.692 267.997C151.624 268.03 149.438 268.343 147.421 267.813C146.012 264.384 145.967 259.269 142.111 257.871C141.415 257.595 140.52 257.575 140.421 258.581C140.184 261.698 140.455 264.845 140.371 267.974C138.288 268.217 136.157 268.072 134.068 267.971C133.929 259.532 134.016 251.079 134.088 242.636ZM140.496 247.432C140.27 249.314 140.152 251.421 140.667 253.25C141.454 253.4 142.249 253.235 143.039 253.19L142.906 253.157C144.809 253.289 147.132 251.963 146.489 249.532C145.613 247.043 142.489 247.497 140.496 247.432Z" fill="white"/>
</svg>
