<svg width="286" height="102" viewBox="0 0 286 102" fill="none" xmlns="http://www.w3.org/2000/svg">
    <path
        d="M34.1221 10.9115C39.1266 7.84257 45.5605 7.74744 50.7564 10.3489C55.3363 12.7469 58.896 17.2413 60.2575 22.4786C61.7548 29.202 59.7913 36.9506 54.5769 41.3088C51.5606 44.4007 47.2276 45.0617 43.7683 47.3892C40.1346 49.5265 36.6722 53.0317 36.2632 57.6605C36.1721 60.6442 37.6879 63.3276 38.1356 66.2211C38.1418 66.1571 38.1541 66.0291 38.1603 65.9652C39.5295 72.2703 35.7661 78.9167 30.2013 81.2409C25.2231 83.5045 19.0377 81.564 15.7776 77.0353C12.0327 72.1932 12.0728 64.3659 16.3425 59.888C19.3511 56.1909 24.3478 55.5413 27.4891 52.0459C29.6533 49.6971 29.9898 46.1131 29.1871 43.0606C28.3968 37.7691 25.4994 33.0517 25.2478 27.6487C24.9483 20.8498 28.7904 14.4249 34.1221 10.9115Z"
        fill="white" />
    <path
        d="M49.4613 52.3904C53.6723 51.3176 58.3125 54.526 59.2325 58.9875C59.6539 61.6332 59.7805 64.6382 61.6467 66.6787C62.8971 67.7645 64.5194 68.2746 66.1186 68.3616L65.9813 68.3895C68.3399 68.5797 70.6955 68.1828 73.048 68.3107C77.1232 68.5141 80.8789 71.2845 82.6896 75.1309C84.8924 79.622 83.8998 85.6548 80.4282 89.1092C77.131 92.7129 71.6634 93.5838 67.3875 91.5975C64.0579 90.0474 61.7177 86.657 60.9876 82.914C60.3053 78.9478 60.4273 74.3813 57.6302 71.2681C55.2947 68.9685 51.9265 70.1741 49.1263 69.4113C44.8365 68.4075 42.1722 63.2489 43.0397 58.812C44.0508 55.7447 46.5052 53.2548 49.4613 52.3904Z"
        fill="white" />
    <path
        d="M17.7055 5.02442C39.0401 5.0212 60.3701 5.04699 81.7047 5.00186C84.3906 5.01798 87.2387 4.83905 89.7162 6.12055C93.228 8.20803 95.5434 12.325 95.3381 16.5821C95.386 36.6767 95.2856 56.7729 95.406 76.8691C95.3227 80.4525 95.6252 84.0761 95.0556 87.6289C94.1109 92.4212 89.7795 96.5107 84.9448 96.1207C64.0532 96.1593 43.1616 96.3721 22.2685 96.2851C19.3557 96.2012 16.3332 96.4559 13.5362 95.4436C9.57673 93.5302 6.81516 89.0329 7.00966 84.4437C7.05906 61.8248 6.98805 39.2042 7.0606 16.587C6.92013 10.6227 11.7116 4.56663 17.7055 5.02442ZM34.1221 11.5786C28.7904 15.0314 24.9483 21.3454 25.2477 28.027C25.4993 33.3367 28.3968 37.9727 29.1871 43.1729C29.9898 46.1727 29.6533 49.6948 27.4891 52.0031C24.3478 55.4382 19.351 56.0765 16.3425 59.7099C12.0728 64.1105 12.0327 71.8027 15.7775 76.5612C19.0377 81.0118 25.223 82.9188 30.2013 80.6943C35.7661 78.4101 39.5295 71.8785 38.1603 65.6822C38.1541 65.745 38.1417 65.8708 38.1356 65.9336C37.6879 63.0901 36.1721 60.453 36.2631 57.5209C36.6722 52.9719 40.1346 49.5272 43.7683 47.4268C47.2276 45.1395 51.5606 44.4898 54.5768 41.4513C59.7912 37.1684 61.7547 29.5535 60.2574 22.9461C58.8959 17.7991 55.3363 13.3824 50.7563 11.0257C45.5605 8.46917 39.1266 8.56266 34.1221 11.5786ZM49.4612 52.3416C46.5052 53.1911 44.0508 55.6381 43.0397 58.6524C42.1722 63.0128 44.8365 68.0824 49.1263 69.0689C51.9264 69.8184 55.2946 68.6336 57.6302 70.8936C60.4272 73.9531 60.3053 78.4408 60.9876 82.3385C61.7177 86.0169 64.0579 89.3488 67.3875 90.8721C71.6634 92.8242 77.1309 91.9683 80.4281 88.4268C83.8998 85.032 84.8923 79.1033 82.6896 74.6897C80.8789 70.9097 77.1232 68.1871 73.048 67.9873C70.6955 67.8615 68.3399 68.2516 65.9812 68.0646L66.1186 68.0372C64.5194 67.9518 62.897 67.4505 61.6467 66.3834C59.7804 64.3781 59.6539 61.425 59.2324 58.8249C58.3124 54.4404 53.6723 51.2874 49.4612 52.3416Z"
        fill="#F31418" />
    <path
        d="M111.154 20.1466C116.211 14.0468 124.051 11.5567 131.447 11.8108C136.529 11.7924 141.661 11.9812 146.639 13.1594C146.979 17.1518 146.572 21.1843 146.868 25.1818C141.027 22.9107 134.189 21.6155 128.364 24.5935C121.538 28.2801 120.768 39.6006 126.138 45.0269C128.07 46.9471 130.839 46.9103 133.295 46.907C133.857 46.8769 134.777 46.8284 134.758 45.9945C134.821 42.1675 134.75 38.3356 134.775 34.5102C139.355 34.5738 143.94 34.4952 148.518 34.5721C148.333 41.3771 148.489 48.1871 148.444 54.9938C148.529 55.7174 147.865 56.0082 147.326 56.1168C144.179 56.7602 141.031 57.4537 137.828 57.6593L137.918 57.7111C131.228 58.2926 124.184 58.1807 118 55.0155C114.302 53.0736 111.173 49.9051 109.049 46.1048C105.16 38.0364 105.344 27.1086 111.154 20.1466Z"
        fill="#161213" />
    <path
        d="M154.473 12.4191C159.787 12.4625 165.108 12.3706 170.421 12.4642C170.341 21.5086 170.388 30.5613 170.407 39.609C170.357 42.3731 171.534 45.7338 174.261 46.4441C177.051 47.2964 180.268 45.0236 180.254 41.7798C180.683 32.0068 180.368 22.2071 180.461 12.4258C185.615 12.4408 190.774 12.384 195.928 12.4475C195.97 19.7672 195.94 27.107 195.993 34.4334C195.942 39.4636 196.159 44.8113 193.87 49.377C191.834 53.4062 187.915 55.938 183.878 57.0042C178.661 58.3027 173.185 58.2743 167.932 57.2214C162.752 56.09 157.66 52.6207 155.682 47.1192C154.628 44.2047 154.467 41.0362 154.473 37.9395C154.429 29.4332 154.463 20.9253 154.473 12.4191Z"
        fill="#161213" />
    <path
        d="M201.911 12.4425C207.195 12.4759 212.499 12.3338 217.77 12.521C217.705 22.6633 217.834 32.809 217.753 42.953C217.625 43.8086 218.474 44.1763 219.126 44.0961C225.178 43.9574 231.234 44.0159 237.287 44.0543C237.438 48.4795 237.222 52.9265 237.283 57.3585C225.487 57.2231 213.674 57.5373 201.883 57.1947C202.021 42.2795 201.951 27.3593 201.911 12.4425Z"
        fill="#161213" />
    <path
        d="M241.007 12.399C252.848 12.4893 264.706 12.4024 276.538 12.5127C276.507 16.1174 276.452 19.7221 276.523 23.3268C270.036 23.2867 263.508 23.2566 257.05 23.4454C256.726 25.6932 256.807 28.0662 256.999 30.3206C263.267 30.588 269.581 30.3307 275.867 30.4727C275.924 34.0223 275.905 37.6136 275.833 41.1732C269.579 41.3687 263.315 41.2718 257.057 41.3336C256.604 46.5443 256.931 52.0208 256.915 57.3334C251.596 57.2582 246.237 57.4504 240.936 57.2264C241.095 42.2862 240.931 27.3393 241.007 12.399Z"
        fill="#161213" />
    <path
        d="M106.815 63.002C108.938 63.0371 111.071 62.9569 113.187 63.1324C113.022 71.7055 113.167 80.2836 113.187 88.8583C111.039 88.7514 108.819 89.124 106.716 88.6077C106.889 80.0747 106.775 71.535 106.815 63.002Z"
        fill="#161213" />
    <path
        d="M200.506 63.4265C203.391 62.875 206.346 62.9719 209.248 63.3011C212.014 63.1741 210.392 67.1064 210.705 68.9263C208.291 68.5971 205.89 67.6629 203.427 68.2194C202.084 68.3013 200.386 69.7234 201.122 71.301C203.604 73.3482 206.929 73.4334 209.56 75.1898C212.134 76.7624 212.712 80.2952 212.057 83.1931L212.045 83.1011C210.489 89.4115 203.282 89.993 198.319 89.114L198.473 89.0889C197.303 88.9552 196.105 88.8801 194.992 88.4372C194.738 87.8005 194.824 87.1003 194.863 86.4318L194.903 86.5471C194.958 85.394 195.002 84.2375 195.122 83.0911C196.534 83.0426 197.805 83.8498 199.185 84.047L199.077 84.0604C199.467 84.1239 199.861 84.1774 200.259 84.2075L200.167 84.2459C201.443 84.3228 202.735 84.3996 203.99 84.0621L203.881 84.0821C204.926 83.7044 205.978 82.7987 206.033 81.5152C203.479 77.613 197.573 78.6592 195.278 74.2841C192.953 69.9173 196.039 64.1033 200.506 63.4265Z"
        fill="#161213" />
    <path
        d="M117.932 63.3563C120.382 63.4181 122.834 63.388 125.282 63.3078C125.674 63.231 126.003 63.4933 126.222 63.8192C128.991 69.2037 130.814 75.2116 133.959 80.3454C133.996 80.2334 134.067 80.0061 134.104 79.8925C134.172 77.3523 134.031 74.8038 134.122 72.2653L134.085 72.1684C133.991 69.2622 134.026 66.3477 133.968 63.4415C135.848 63.3613 137.74 63.3663 139.624 63.4131C139.625 71.9394 139.65 80.4874 139.641 89.0204C137.656 89.2293 135.66 88.7564 133.684 89.1057C132.809 89.231 131.745 88.9636 131.344 88.0211C129.692 84.3161 127.887 80.693 126.262 76.9746C125.519 75.2199 124.876 73.3499 123.686 71.8843C122.977 77.5077 123.92 83.2683 123.678 88.9452C121.819 89.221 119.919 89.0121 118.05 88.9335C117.996 88.8917 117.888 88.8115 117.834 88.7714C117.86 80.3019 117.735 71.8224 117.932 63.3563Z"
        fill="#161213" />
    <path
        d="M184.823 63.5752C186.641 63.1624 188.563 63.5384 190.42 63.3212C191.292 63.2527 191.115 64.3974 191.115 65.0191C190.922 71.1155 191.762 77.349 190.49 83.3401C188.66 89.0823 182.169 90.2471 177.319 89.1324L177.421 89.1207C174.045 88.3135 170.981 85.3672 170.569 81.5286C170.001 75.499 170.432 69.4076 170.327 63.3546C172.434 63.4515 174.544 63.3195 176.651 63.4131C176.589 68.3514 176.535 73.2981 176.615 78.238C176.659 80.4507 177.261 83.056 179.291 84.0621C181.716 85.3054 184.681 82.9992 184.687 80.1833C184.987 74.6634 184.914 69.1084 184.823 63.5752Z"
        fill="#161213" />
    <path
        d="M254.788 63.2878C256.841 63.4616 258.902 63.4733 260.957 63.2894C262.244 63.1023 262.462 64.8319 262.892 65.7728C264.18 68.2378 264.711 71.1423 266.381 73.3432C268.468 70.3919 269.269 66.5833 271.1 63.4566C273.136 63.1741 275.24 63.5301 277.305 63.3546L277.197 63.3062C277.501 63.3028 277.807 63.3011 278.117 63.3045C275.806 68.8544 272.211 73.7426 269.789 79.2558C269.19 82.4527 269.703 85.765 269.391 88.9937C267.392 89.0906 265.361 89.1541 263.368 88.9619C262.983 85.6413 263.825 82.1787 262.939 78.9165C260.472 73.5655 257.125 68.6923 254.788 63.2878Z"
        fill="#161213" />
    <path
        d="M144.221 63.4031C148.912 63.4833 153.628 63.2176 158.292 63.871C161.409 64.3323 164.348 66.4379 165.673 69.5714C167.371 73.5287 167.398 78.2698 165.791 82.2689C163.89 86.5471 159.413 88.6561 155.216 88.86C151.596 88.992 147.952 89.2059 144.34 88.9452C144.068 80.454 144.406 71.9127 144.221 63.4031ZM150.709 83.6259C152.252 84.5651 154.254 83.6175 155.941 83.4371C160.645 82.1352 161.647 75.1781 159.162 71.2743C157.261 68.4216 153.646 68.3798 150.713 68.4233C150.417 73.4602 150.372 78.5907 150.709 83.6259Z"
        fill="#161213" />
    <path
        d="M214.143 63.4365C220.181 63.4164 226.233 63.3362 232.27 63.4566C232.265 65.0659 232.251 66.6769 232.154 68.2829C230.294 68.7759 228.349 68.2662 226.469 68.5085C226.197 75.3101 226.33 82.1653 226.331 88.9853C224.277 89.1157 222.193 89.1157 220.138 88.977C219.921 82.1837 220.316 75.3569 220.084 68.5703C218.224 68.1525 216.285 68.7257 214.41 68.3898C214.225 66.7504 214.251 65.0859 214.143 63.4365Z"
        fill="#161213" />
    <path
        d="M234.775 63.3797C239.009 63.4298 243.245 63.3362 247.478 63.4933L247.385 63.515C247.888 63.5451 248.391 63.5953 248.896 63.6404L248.782 63.6772C252.894 64.0147 255.162 70.0092 252.765 73.5421C252.169 74.7436 250.894 75.1965 250.113 76.2026L250.079 76.0254C250.054 77.4275 251.246 78.3533 251.636 79.6268C252.57 82.7485 254.098 85.785 254.575 88.9954C252.487 89.0288 250.279 89.3446 248.242 88.8099C246.818 85.3455 246.774 80.1799 242.879 78.7678C242.175 78.4887 241.272 78.4687 241.172 79.4847C240.933 82.6332 241.206 85.8118 241.121 88.972C239.017 89.2176 236.865 89.0706 234.755 88.9686C234.614 80.4457 234.702 71.9077 234.775 63.3797ZM241.247 68.2244C241.019 70.1245 240.9 72.2536 241.42 74.1002C242.215 74.2523 243.018 74.0852 243.816 74.0401L243.682 74.0066C245.604 74.1403 247.95 72.8001 247.3 70.3451C246.416 67.8317 243.26 68.2896 241.247 68.2244Z"
        fill="#161213" />
</svg>